<?xml version="1.0" encoding="UTF-8"?>
<svg version="1.1" viewBox="0 0 420 75" xmlns="http://www.w3.org/2000/svg">
<title>The Phoenix</title>
<g fill="none" fill-rule="evenodd">
<g transform="translate(0)" fill-rule="nonzero">
<g transform="translate(209.5 36) scale(-1 1) rotate(180) translate(-209.5 -36)">
<g transform="translate(0 .33333)" fill="#ED1C24">
<g transform="translate(.13667 1.9128)">
<path d="m42.667 59c0-0.95067-0.46933-1.3813-1.584-1.3813-3.4053 0-6.6893 0.25733-10.152 0.25733l-0.06-2.4187-0.057333-11.579-0.11867-13.132v-16.503c0.058667-7 0.058667-11.147 0.058667-12.443 0-0.34667 0-0.86533 0.06-1.5547h-18.371c0 5.2707 0.058667 10.453 0.11733 15.725l0.058667 19.527-0.11733 12.096-0.058667 10.281c-3.4627 0-6.984-0.344-10.447-0.344-1.1147 0-1.5253 0.51733-1.5253 1.5547 0 1.2093 0.41067 1.6413 1.5853 1.6413l0.76133 0.086667h31.576 5.3987l1.1733-0.086667c1.232 0 1.7013-0.432 1.7013-1.728"/>
</g>
<g transform="translate(44.712 2.1588)">
<path d="m40.333 0h-15.433c0 4.752 0.057333 9.5053 0.057333 14.257l0.06 13.132-0.06 8.468c-0.057333 7.5173-0.116 7.776-2.348 7.776-2.0533 0-3.9893-1.3827-7.0413-5.0107l-0.058667-3.8027v-12.355l0.116-14.345 0.06-8.12h-15.493l0.057333 18.663v15.293 11.751l-0.057333 12.703v2.16h15.376c0-5.5307 0-11.148-0.058667-16.764l0.058667-1.7267c4.108 4.3187 8.5093 7.604 13.675 7.604 5.1053 0 9.096-3.2853 10.269-8.468 0.648-3.1973 0.76533-4.5813 0.76533-10.715 0-5.0107-0.11733-9.9347-0.11733-14.861 0-5.184 0.17333-10.456 0.17333-15.639"/>
</g>
<g transform="translate(87.842 .82027)">
<path d="m22.667 27v12.961c-0.116 5.356 0.176 8.2933-4.1667 8.2933-2.9933 0-3.5213-1.2093-3.5213-8.2933v-12.961c1.232-0.086667 2.348-0.172 3.58-0.172 1.408 0 2.7587 0 4.108 0.172m12.5-2.7653c-6.8067 0-13.497-0.085333-20.188-0.085333v-13.827c0-3.8013 0-7.0827 3.1693-7.0827 9.3893 0 13.557 13.132 14.907 13.132 0.70533 0 1.1733-0.864 1.1733-1.9867 0-1.3827-0.99467-3.6293-2.5227-5.7893-3.6987-5.0107-9.0387-8.2933-13.675-8.2933-9.448 0-17.136 11.403-17.136 25.228s7.7467 25.403 17.019 25.403c10.391 0 17.253-11.924 17.253-26.699"/>
</g>
<g transform="translate(144.33 1.4115)">
<path d="m40 36c0 7.1707-3.2893 15.293-7.5133 18.663-4.0493 3.3707-9.272 3.6293-13.791 3.6293v-2.9373l-0.06-15.467-0.057333-13.393c0-3.9747 0-7.8627 0.057333-11.836 1.5253-0.692 3.6973-1.0387 6.1627-1.0387 8.6853 0 15.201 9.6773 15.201 22.38m1.9947-0.26c0-14.341-7.4533-24.885-17.667-24.885-1.8773 0-3.816 0.43467-5.692 0.77867 0-3.628 0.06-7.256 0.06-10.885h-18.369v2.676l0.11733 17.541 0.057333 15.812-0.11733 12.701-0.057333 10.023v1.8147h13.732c6.1627 0 10.8-0.432 14.26-1.3813 7.6893-2.1613 13.676-12.531 13.676-24.195"/>
</g>
<g transform="translate(189.32 2.1588)">
<path d="m40.333 0h-15.436c0 4.752 0.06 9.5053 0.06 14.257l0.057333 13.132-0.057333 8.468c-0.06 7.5173-0.11867 7.776-2.348 7.776-2.0533 0-3.9907-1.3827-7.0427-5.0107l-0.06-3.8027v-12.355l0.11867-14.345 0.058667-8.12h-15.495l0.06 18.663v15.293 11.751l-0.06 12.703v2.16h15.377c0-5.5307 0-11.148-0.06-16.764l0.06-1.7267c4.108 4.3187 8.508 7.604 13.673 7.604 5.1053 0 9.0973-3.2853 10.269-8.468 0.64667-3.1973 0.76533-4.5813 0.76533-10.715 0-5.0107-0.11867-9.9347-0.11867-14.861 0-5.184 0.17733-10.456 0.17733-15.639"/>
</g>
<g transform="translate(232.41 1.0183)">
<path d="m33.333 25.333c0 12.441-6.748 22.639-15.081 22.639-0.17733 0-0.472 0-1.116-0.088l-0.057333-44.756c0.584 0 0.93867-0.086667 1.1733-0.086667 8.4507 0 15.081 9.764 15.081 22.292m1.936 0.085333c0-14.171-7.6293-25.315-17.428-25.315-9.3333 0-16.905 11.491-16.905 25.404 0 13.909 7.6893 25.228 17.256 25.228 9.332 0 17.077-11.492 17.077-25.317"/>
</g>
<g transform="translate(270.21 .82027)">
<path d="m22.667 27v12.961c-0.11733 5.356 0.17733 8.2933-4.1653 8.2933-2.9947 0-3.5213-1.2093-3.5213-8.2933v-12.961c1.2307-0.086667 2.348-0.172 3.5787-0.172 1.4107 0 2.7587 0 4.108 0.172m12.5-2.7653c-6.8067 0-13.496-0.085333-20.187-0.085333v-13.827c0-3.8013 0-7.0827 3.1667-7.0827 9.392 0 13.559 13.132 14.909 13.132 0.704 0 1.1747-0.864 1.1747-1.9867 0-1.3827-0.99733-3.6293-2.5253-5.7893-3.6973-5.0107-9.0387-8.2933-13.675-8.2933-9.4493 0-17.137 11.403-17.137 25.228s7.7467 25.403 17.021 25.403c10.387 0 17.252-11.924 17.252-26.699"/>
</g>
<g transform="translate(308.91 2.1588)">
<path d="m40 0h-15.317c0.058667 4.06 0.058667 8.2947 0.11867 12.356l0.06 9.0707c0 6.0467-0.06 12.097-0.06 18.233 0 2.8493-0.70267 4.06-2.4067 4.06-1.9373 0-4.284-1.728-6.9267-5.012v-1.8133l-0.056-12.528c-0.06-4.752-0.06-9.504-0.06-14.26 0-3.3667 0-6.7373 0.116-10.107l-15.375 2.3685e-15c0 9.7627 0.17733 19.615 0.17733 29.377 0 6.3947-0.17733 12.615-0.17733 19.095h15.375v-6.2213c4.932 5.1853 9.0987 7.432 13.617 7.432 5.3413 0 9.448-3.8013 10.445-9.6773 0.41333-2.68 0.46933-3.8027 0.46933-9.1587 0-6.2213-0.056-12.615-0.056-18.836 0-4.0613 0-8.0373 0.056-12.011"/>
</g>
<g transform="translate(352.79 1.4115)">
<path d="m16 0.43098h-15.433c0 11.353 0.23467 22.61 0.23467 33.963 0 6.6384-0.116 13.181-0.116 20.01h15.315v-9.2347l-0.058667-11.93-0.057333-13.373v-10.873c0.057333-2.7896 0.116-5.7726 0.116-8.5634"/>
</g>
<g transform="translate(352.96 59.314)">
<path d="m16 5.3333c0-3.2707-2.992-5.2773-7.9173-5.2773-5.0493 0-7.572 1.8587-7.572 5.4267 0 3.344 2.6973 5.2027 7.5107 5.2027 5.2827 0 7.9787-1.784 7.9787-5.352"/>
</g>
<g transform="translate(372.54 .82547)">
<path d="m45.333 1.3333h-19.835l-9.6853 19.699c-3.696-5.5293-7.3333-11.231-10.505-17.451-1.5827-2.7667-1.8787-3.284-2.4053-3.284-0.82 0-1.7027 1.1213-1.7027 2.3307 0 0.692 0.46933 1.3827 2.172 3.888 3.9333 5.272 7.628 11.06 11.149 16.936-4.224 8.9867-8.5093 18.404-13.791 26.353h19.6c2.3507-5.8747 5.5187-11.751 8.16-17.281 3.228 5.184 6.4547 10.369 9.3907 15.9 1.1133 2.0747 1.468 2.504 1.9947 2.504 0.704 0 1.5853-1.0373 1.5853-2.1587 0-0.692-0.352-1.4693-1.6427-3.1987-3.5227-4.664-6.808-10.108-10.095-15.292 4.8093-10.023 9.74-20.305 15.609-28.945"/>
</g>
</g>
</g>
</g>
</g>
</svg>
